<svg id="svg" version="1.1" xmlns="http://www.w3.org/2000/svg" xmlns:xlink="http://www.w3.org/1999/xlink" width="400" height="414" viewBox="0, 0, 400,414"><g id="svgg"><path id="path0" d="M182.455 27.558 C 182.024 27.831,182.017 27.939,182.421 28.074 C 183.025 28.275,182.632 28.666,180.282 30.206 C 178.842 31.149,178.468 31.200,172.982 31.200 L 167.200 31.200 167.200 32.146 C 167.200 33.110,165.598 33.600,162.444 33.600 C 161.425 33.600,159.200 35.780,159.200 36.779 C 159.200 37.010,158.773 37.200,158.250 37.200 C 156.495 37.200,154.861 37.683,154.044 38.444 C 153.433 39.014,152.633 39.200,150.789 39.200 C 148.483 39.200,148.352 39.251,148.472 40.100 C 148.573 40.807,148.278 41.146,147.100 41.680 C 146.275 42.055,145.600 42.550,145.600 42.780 C 145.600 43.011,145.145 43.200,144.590 43.200 C 143.788 43.200,143.531 43.447,143.340 44.400 C 143.204 45.080,142.845 45.600,142.513 45.600 C 142.189 45.600,141.831 45.960,141.716 46.400 C 141.534 47.095,141.170 47.200,138.941 47.200 C 136.846 47.200,136.335 47.329,136.158 47.900 C 136.039 48.285,135.775 48.913,135.571 49.295 C 135.367 49.677,135.200 50.352,135.200 50.795 C 135.200 51.265,134.935 51.600,134.563 51.600 C 134.212 51.600,133.835 51.945,133.725 52.366 C 133.615 52.787,133.103 53.238,132.589 53.367 C 132.074 53.496,131.539 53.961,131.400 54.401 C 131.206 55.012,130.794 55.200,129.653 55.200 C 127.775 55.200,127.200 55.770,127.200 57.633 C 127.200 58.788,127.020 59.154,126.370 59.324 C 125.914 59.443,125.445 59.908,125.327 60.357 C 125.210 60.806,124.782 61.279,124.377 61.407 C 123.972 61.536,123.530 61.992,123.394 62.420 C 123.240 62.904,122.787 63.200,122.199 63.200 C 119.894 63.200,119.200 63.838,119.200 65.957 C 119.200 68.318,118.913 69.200,118.144 69.200 C 117.831 69.200,117.429 69.593,117.251 70.074 C 117.045 70.631,116.360 71.107,115.364 71.385 C 114.221 71.705,113.766 72.062,113.672 72.712 C 113.553 73.541,112.048 74.743,111.600 74.368 C 111.490 74.275,111.347 75.396,111.283 76.858 C 111.186 79.050,111.036 79.550,110.425 79.709 C 109.979 79.826,109.568 80.438,109.390 81.251 C 109.228 81.993,108.714 83.001,108.248 83.490 C 106.269 85.569,105.777 86.233,105.364 87.384 C 105.125 88.053,104.720 88.623,104.464 88.650 C 104.209 88.678,103.820 88.723,103.600 88.750 C 103.369 88.779,103.200 90.227,103.200 92.180 C 103.200 94.743,103.057 95.640,102.610 95.890 C 102.286 96.072,101.769 96.936,101.462 97.810 C 101.121 98.782,100.681 99.361,100.330 99.300 C 99.972 99.238,99.755 99.539,99.755 100.100 C 99.753 102.079,99.048 105.050,98.377 105.912 C 97.986 106.413,97.546 107.538,97.398 108.412 C 97.175 109.731,96.972 110.000,96.198 110.000 L 95.267 110.000 95.218 117.067 C 95.175 123.240,95.083 124.198,94.485 124.635 C 93.955 125.022,93.769 125.898,93.661 128.511 L 93.523 131.887 94.861 133.142 C 96.373 134.558,97.705 134.751,98.477 133.665 C 98.765 133.260,99.500 132.806,100.110 132.654 C 100.721 132.503,101.556 132.044,101.967 131.633 C 102.384 131.216,103.613 130.763,104.756 130.606 C 106.402 130.380,106.800 130.176,106.800 129.562 C 106.800 128.857,107.142 128.800,111.400 128.800 L 116.000 128.800 116.000 127.800 C 116.000 127.008,116.202 126.800,116.969 126.800 C 117.502 126.800,118.473 126.350,119.127 125.800 C 119.781 125.250,120.650 124.799,121.058 124.798 C 122.510 124.793,124.800 123.954,124.800 123.426 C 124.800 123.128,125.428 122.771,126.209 122.625 C 126.984 122.479,127.837 122.009,128.105 121.580 C 128.537 120.889,129.060 120.800,132.684 120.800 L 136.775 120.800 136.887 116.100 C 136.949 113.515,137.160 111.460,137.355 111.534 C 137.937 111.754,138.350 110.741,138.633 108.403 C 138.938 105.871,139.311 105.281,141.063 104.548 C 142.093 104.118,142.377 103.722,142.599 102.409 C 142.811 101.153,143.083 100.744,143.835 100.555 C 144.690 100.341,144.800 100.091,144.800 98.357 C 144.800 96.616,144.896 96.400,145.667 96.400 C 146.143 96.400,146.421 96.287,146.283 96.149 C 145.940 95.807,146.931 93.967,147.959 93.037 C 148.422 92.618,148.800 91.956,148.800 91.565 C 148.800 91.174,149.151 90.743,149.580 90.606 C 150.008 90.470,150.470 90.008,150.606 89.580 C 150.762 89.088,151.214 88.800,151.827 88.800 C 152.641 88.800,152.800 88.604,152.800 87.600 C 152.800 86.667,152.978 86.400,153.600 86.400 C 154.137 86.400,154.400 86.133,154.400 85.590 C 154.400 85.094,154.788 84.633,155.400 84.400 C 155.950 84.191,156.400 83.789,156.400 83.508 C 156.400 83.226,156.940 82.756,157.600 82.464 C 158.260 82.172,158.800 81.678,158.800 81.366 C 158.800 80.986,159.259 80.800,160.200 80.800 C 161.391 80.800,161.600 80.664,161.600 79.886 C 161.600 79.295,162.024 78.722,162.800 78.264 C 163.460 77.874,164.000 77.405,164.000 77.222 C 164.000 77.039,164.612 76.774,165.359 76.634 C 167.212 76.286,168.800 74.965,168.800 73.771 C 168.800 72.811,168.844 72.800,172.600 72.800 C 176.347 72.800,176.400 72.787,176.400 71.838 C 176.400 70.980,176.629 70.844,178.497 70.587 C 179.764 70.412,180.852 70.002,181.244 69.549 C 181.601 69.137,182.200 68.800,182.573 68.800 C 183.607 68.800,184.800 68.043,184.800 67.386 C 184.800 66.338,210.532 66.531,211.877 67.589 C 212.430 68.024,213.493 68.494,214.241 68.634 C 215.172 68.809,215.600 69.110,215.600 69.590 C 215.600 70.297,217.618 70.800,220.456 70.800 C 221.410 70.800,221.600 70.966,221.600 71.800 C 221.600 72.776,221.670 72.800,224.557 72.800 C 226.824 72.800,227.568 72.941,227.746 73.403 C 227.873 73.735,228.478 74.225,229.089 74.491 C 230.918 75.289,234.362 79.061,234.117 79.998 C 233.922 80.741,234.101 80.800,236.553 80.800 L 239.200 80.800 239.200 82.600 C 239.200 83.590,239.380 84.423,239.600 84.450 C 239.820 84.478,240.180 84.545,240.400 84.600 C 240.620 84.655,240.980 84.723,241.200 84.750 C 241.420 84.778,241.600 85.074,241.600 85.410 C 241.600 85.745,242.050 86.191,242.600 86.400 C 243.302 86.667,243.600 87.081,243.600 87.790 C 243.600 88.346,243.735 88.779,243.900 88.753 C 244.065 88.727,244.866 88.727,245.679 88.753 L 247.158 88.800 247.279 90.900 C 247.386 92.755,247.496 92.987,248.221 92.888 C 248.892 92.797,249.111 93.089,249.421 94.488 C 249.772 96.076,249.921 96.227,251.465 96.570 C 253.052 96.922,253.143 97.022,253.396 98.715 C 253.588 99.996,253.877 100.547,254.431 100.692 C 255.102 100.868,255.200 101.270,255.200 103.847 C 255.200 106.730,255.224 106.800,256.200 106.800 C 256.777 106.800,257.200 107.030,257.200 107.344 C 257.200 107.643,257.656 108.560,258.213 109.381 C 258.770 110.201,259.337 111.691,259.474 112.690 C 259.640 113.896,259.945 114.565,260.382 114.679 C 260.750 114.776,261.271 115.633,261.564 116.626 C 261.859 117.622,262.332 118.400,262.644 118.400 C 262.995 118.400,263.200 118.842,263.200 119.600 L 263.200 120.800 266.573 120.800 L 269.947 120.800 271.781 122.687 C 273.572 124.530,273.682 124.578,276.408 124.733 C 278.725 124.863,279.200 125.008,279.200 125.581 C 279.200 125.961,279.651 126.477,280.202 126.728 C 281.280 127.219,281.372 128.031,280.400 128.472 C 280.070 128.621,281.903 128.756,284.473 128.772 C 288.682 128.797,289.170 128.875,289.385 129.552 C 289.641 130.360,291.130 130.800,293.603 130.800 C 294.759 130.800,295.154 130.981,295.311 131.582 C 295.425 132.018,296.015 132.489,296.644 132.647 C 297.265 132.803,298.128 133.261,298.562 133.665 C 299.748 134.770,302.400 134.558,302.400 133.357 C 302.400 132.848,302.983 132.644,304.300 132.693 C 304.658 132.706,304.791 131.899,304.768 129.856 C 304.751 128.285,304.648 127.219,304.540 127.486 C 303.791 129.332,302.800 126.917,302.783 123.204 C 302.762 118.682,302.358 116.301,301.459 115.402 C 301.097 115.040,300.800 114.298,300.800 113.753 C 300.800 113.209,300.350 112.314,299.800 111.764 C 298.962 110.926,298.800 110.386,298.800 108.432 C 298.800 105.060,298.449 103.706,297.512 103.461 C 296.764 103.266,296.719 102.982,296.855 99.326 L 297.000 95.400 296.000 95.276 C 294.703 95.115,293.133 92.623,292.600 89.883 C 292.243 88.046,292.063 87.785,290.928 87.462 C 289.203 86.971,288.672 85.546,288.911 82.041 L 289.101 79.240 287.970 79.466 C 287.002 79.660,286.801 79.543,286.579 78.660 C 286.437 78.093,285.978 77.520,285.560 77.387 C 285.142 77.255,284.800 76.892,284.800 76.582 C 284.800 76.272,284.368 75.736,283.841 75.390 C 283.274 75.019,282.776 74.199,282.624 73.386 C 282.477 72.606,282.016 71.822,281.558 71.578 C 280.885 71.217,280.782 70.852,280.936 69.374 C 281.041 68.364,280.964 67.699,280.757 67.827 C 280.099 68.233,278.930 67.603,278.469 66.592 C 278.221 66.047,277.743 65.600,277.409 65.600 C 277.074 65.600,276.778 65.420,276.750 65.200 C 276.723 64.980,276.655 64.620,276.600 64.400 C 276.545 64.180,276.478 63.820,276.450 63.600 C 276.423 63.380,276.265 63.221,276.100 63.247 C 275.935 63.273,275.125 63.273,274.300 63.247 L 272.800 63.200 272.800 61.200 C 272.800 59.333,272.733 59.200,271.800 59.200 C 271.175 59.200,270.800 58.974,270.800 58.596 C 270.800 58.264,270.450 57.693,270.023 57.327 C 269.433 56.822,269.340 56.486,269.637 55.931 C 269.994 55.264,269.835 55.200,267.838 55.200 C 265.445 55.200,265.168 54.981,264.818 52.814 C 264.646 51.753,264.371 51.369,263.714 51.275 C 263.232 51.206,262.734 50.822,262.607 50.422 C 262.480 50.022,261.842 49.588,261.188 49.458 C 260.247 49.269,260.000 49.010,260.000 48.210 C 260.000 47.280,259.858 47.200,258.200 47.200 C 256.854 47.200,256.400 47.046,256.400 46.590 C 256.400 46.255,255.957 45.812,255.416 45.606 C 254.875 45.400,254.059 44.859,253.603 44.403 C 253.148 43.948,252.241 43.468,251.588 43.337 C 250.918 43.204,250.400 42.844,250.400 42.513 C 250.400 42.189,250.040 41.831,249.600 41.716 C 249.033 41.568,248.800 41.170,248.800 40.353 L 248.800 39.200 245.696 39.200 C 243.074 39.200,242.518 39.081,242.115 38.436 C 241.853 38.016,241.045 37.542,240.319 37.382 C 239.594 37.223,238.779 36.777,238.509 36.392 C 238.239 36.007,237.519 35.566,236.909 35.413 C 236.299 35.260,235.489 34.801,235.108 34.393 C 234.728 33.985,233.603 33.530,232.608 33.380 C 231.045 33.146,230.800 32.980,230.800 32.155 L 230.800 31.200 223.800 31.200 C 217.893 31.200,216.800 31.108,216.800 30.609 C 216.800 30.284,216.350 29.724,215.800 29.363 C 215.250 29.003,214.800 28.369,214.800 27.954 C 214.800 27.134,183.725 26.753,182.455 27.558 M124.730 129.510 C 125.513 129.771,125.285 131.200,124.460 131.200 C 123.150 131.200,121.200 132.061,121.200 132.639 C 121.200 133.028,120.702 133.200,119.574 133.200 C 117.691 133.200,116.400 133.775,116.400 134.614 C 116.400 135.093,115.597 135.200,112.000 135.200 C 109.580 135.200,107.621 135.335,107.647 135.500 C 107.815 136.560,107.507 137.200,106.831 137.200 C 106.408 137.200,105.553 137.625,104.931 138.145 C 104.183 138.770,103.025 139.186,101.509 139.373 C 100.249 139.528,99.236 139.778,99.257 139.928 C 99.380 140.812,99.052 141.139,97.805 141.373 C 97.027 141.519,96.224 141.981,95.991 142.417 C 95.629 143.094,95.139 143.200,92.386 143.200 C 89.504 143.200,89.200 143.274,89.200 143.973 C 89.200 144.953,90.506 145.386,91.636 144.781 C 92.113 144.525,94.145 144.172,96.151 143.995 C 99.690 143.683,101.761 143.019,104.092 141.453 C 104.692 141.049,105.895 140.559,106.765 140.363 C 108.760 139.915,112.074 137.989,112.600 136.973 C 112.940 136.316,113.506 136.184,116.376 136.096 C 118.538 136.030,120.079 135.778,120.662 135.396 C 121.162 135.068,121.893 134.792,122.286 134.782 C 123.613 134.750,125.931 133.722,127.527 132.458 C 130.045 130.464,133.395 130.994,136.000 133.799 C 137.362 135.266,138.619 135.855,141.109 136.192 C 142.884 136.432,143.386 136.698,144.277 137.866 C 144.936 138.729,146.407 139.769,148.168 140.616 C 152.907 142.895,153.538 143.986,153.928 150.581 L 154.250 156.007 155.625 157.436 C 157.429 159.311,158.033 159.609,160.839 160.006 C 162.135 160.189,163.485 160.628,163.838 160.981 C 164.191 161.334,165.137 161.897,165.940 162.233 C 166.743 162.568,167.850 163.268,168.400 163.788 C 169.551 164.876,173.051 166.800,173.879 166.800 C 174.188 166.800,175.016 167.100,175.720 167.466 C 176.424 167.832,177.943 168.177,179.095 168.232 C 180.357 168.293,181.442 168.585,181.824 168.966 C 182.172 169.315,182.600 169.600,182.775 169.600 C 182.950 169.600,183.570 170.320,184.153 171.200 C 185.193 172.772,185.253 172.800,187.619 172.800 C 190.115 172.800,192.800 171.969,192.800 171.197 C 192.800 170.953,192.956 170.849,193.146 170.967 C 194.018 171.506,194.347 176.644,194.361 189.970 C 194.370 197.999,194.566 205.452,194.813 207.170 C 195.102 209.178,195.208 218.451,195.125 234.668 L 195.000 259.136 194.100 260.094 C 192.531 261.763,192.878 262.800,195.005 262.800 L 196.810 262.800 196.795 215.607 C 196.787 189.652,196.676 168.142,196.548 167.807 C 196.094 166.625,191.200 166.968,191.200 168.182 C 191.200 169.376,189.432 169.846,186.557 169.414 C 184.881 169.163,184.735 169.053,184.904 168.169 C 185.087 167.209,185.059 167.200,181.907 167.200 C 179.086 167.200,178.702 167.111,178.521 166.418 C 178.372 165.851,177.834 165.564,176.558 165.373 C 175.195 165.168,174.800 164.940,174.800 164.355 C 174.800 163.940,174.530 163.578,174.200 163.550 C 173.870 163.523,173.420 163.455,173.200 163.400 C 172.980 163.345,172.632 163.278,172.427 163.250 C 172.222 163.222,171.940 162.840,171.800 162.400 C 171.625 161.848,171.060 161.523,169.973 161.349 C 168.655 161.139,168.400 160.944,168.400 160.149 C 168.400 159.095,168.453 159.106,163.700 159.197 L 160.800 159.252 160.800 158.053 C 160.800 157.007,160.678 156.875,159.846 157.026 C 159.136 157.155,158.838 156.987,158.676 156.370 C 158.557 155.914,158.086 155.443,157.630 155.324 C 156.848 155.119,156.797 154.811,156.750 149.953 C 156.687 143.411,156.757 143.822,155.678 143.669 C 155.145 143.594,154.602 143.131,154.388 142.569 C 154.186 142.036,153.757 141.600,153.436 141.600 C 153.097 141.600,152.800 141.139,152.727 140.500 C 152.627 139.634,152.365 139.373,151.491 139.273 C 150.881 139.202,149.910 138.707,149.333 138.173 C 148.755 137.638,147.949 137.200,147.542 137.200 C 147.017 137.200,146.800 136.907,146.800 136.200 C 146.800 135.247,146.690 135.200,144.447 135.200 C 142.475 135.200,142.061 135.077,141.895 134.443 C 141.756 133.911,141.179 133.602,139.949 133.400 C 137.798 133.047,136.800 132.217,136.800 130.781 C 136.800 129.296,136.445 129.219,129.934 129.291 C 126.813 129.325,124.472 129.424,124.730 129.510 M186.800 262.427 C 184.742 262.937,176.829 270.741,176.342 272.740 C 175.393 276.641,175.233 284.885,176.026 289.000 C 176.451 291.200,176.798 293.042,176.799 293.094 C 176.799 293.146,177.506 293.656,178.370 294.228 C 182.016 296.640,181.970 307.229,178.182 338.000 C 177.055 347.151,176.822 350.157,176.814 355.600 C 176.798 367.664,175.976 380.941,175.195 381.753 C 173.752 383.255,169.588 382.674,167.499 380.679 C 166.762 379.976,165.358 378.809,164.380 378.086 C 163.401 377.363,161.790 376.150,160.800 375.390 C 159.606 374.473,158.564 374.006,157.704 374.004 C 156.606 374.001,155.858 373.448,152.818 370.396 C 149.667 367.234,148.977 366.734,147.180 366.320 C 145.540 365.941,144.646 365.378,142.687 363.491 C 141.342 362.196,139.513 360.765,138.621 360.313 C 137.729 359.860,136.571 359.155,136.046 358.745 C 135.521 358.335,134.576 358.000,133.946 358.000 C 133.300 358.000,132.796 357.782,132.791 357.500 C 132.787 357.225,131.803 356.298,130.605 355.440 C 129.407 354.581,127.979 353.203,127.432 352.377 C 126.558 351.057,126.117 350.801,123.805 350.273 C 121.838 349.825,120.948 349.393,120.286 348.568 C 119.799 347.960,119.310 347.359,119.200 347.232 C 118.233 346.111,114.728 343.737,112.516 342.705 C 111.022 342.007,109.440 341.100,109.000 340.688 C 108.560 340.276,107.383 339.407,106.384 338.757 C 105.385 338.106,104.241 336.966,103.841 336.224 C 103.128 334.900,101.126 334.000,98.895 334.000 C 98.482 334.000,97.077 332.856,95.772 331.458 C 93.417 328.934,92.412 328.336,90.300 328.200 C 89.305 328.135,89.200 328.257,89.200 329.464 C 89.200 330.682,89.306 330.800,90.400 330.800 C 91.464 330.800,91.790 331.132,91.655 332.077 C 91.633 332.229,92.422 332.474,93.408 332.622 C 94.955 332.854,95.200 333.021,95.200 333.845 C 95.200 334.722,95.360 334.800,97.172 334.800 C 98.913 334.800,99.159 334.906,99.272 335.700 C 99.364 336.344,99.712 336.636,100.500 336.727 C 101.277 336.816,101.600 337.080,101.600 337.627 C 101.600 338.116,101.875 338.400,102.350 338.400 C 102.863 338.400,103.176 338.779,103.340 339.600 C 103.526 340.531,103.794 340.800,104.535 340.800 C 105.316 340.800,105.470 340.982,105.380 341.800 C 105.272 342.787,105.310 342.800,108.235 342.800 L 111.200 342.800 111.200 344.800 C 111.200 345.900,111.380 346.800,111.600 346.800 C 111.820 346.800,112.000 346.609,112.000 346.376 C 112.000 346.143,112.211 346.083,112.468 346.242 C 112.783 346.436,112.852 346.313,112.681 345.866 C 112.540 345.500,112.599 345.200,112.813 345.200 C 113.026 345.200,113.200 345.560,113.200 346.000 C 113.200 346.581,113.467 346.800,114.172 346.800 C 114.876 346.800,115.180 347.049,115.272 347.700 C 115.375 348.423,115.695 348.624,116.900 348.724 C 118.190 348.831,118.400 348.985,118.400 349.824 C 118.400 350.712,118.560 350.800,120.171 350.800 C 121.584 350.800,122.101 351.002,122.729 351.800 C 123.161 352.350,123.894 352.800,124.358 352.800 C 124.989 352.800,125.200 353.050,125.200 353.800 C 125.200 354.600,125.400 354.800,126.200 354.800 C 127.132 354.800,127.200 354.934,127.200 356.786 L 127.200 358.771 131.100 358.886 L 135.000 359.000 135.200 360.396 C 135.352 361.455,135.689 361.928,136.600 362.358 C 137.260 362.669,137.861 363.079,137.936 363.269 C 138.277 364.138,139.359 364.800,140.436 364.800 C 141.470 364.800,141.594 364.921,141.438 365.780 C 141.270 366.706,141.376 366.767,143.330 366.880 C 144.794 366.965,145.368 367.155,145.290 367.531 C 145.229 367.823,145.712 368.263,146.363 368.509 C 147.015 368.754,147.631 369.275,147.733 369.667 C 147.857 370.140,148.468 370.465,149.560 370.640 L 151.200 370.902 151.200 372.851 L 151.200 374.800 154.400 374.800 C 157.381 374.800,157.600 374.857,157.600 375.637 C 157.600 376.138,157.921 376.559,158.400 376.684 C 158.918 376.819,159.200 377.230,159.200 377.847 C 159.200 378.634,159.404 378.800,160.372 378.800 C 161.283 378.800,161.573 379.000,161.672 379.700 C 161.803 380.621,161.899 380.664,164.047 380.750 C 165.144 380.794,165.271 380.917,165.106 381.779 C 164.943 382.630,165.081 382.774,166.159 382.879 C 166.842 382.946,167.364 383.198,167.320 383.441 C 167.272 383.703,167.636 383.806,168.220 383.694 C 168.933 383.558,169.200 383.683,169.200 384.153 C 169.200 384.509,169.364 384.800,169.565 384.800 C 169.765 384.800,169.880 385.250,169.820 385.800 C 169.710 386.799,169.713 386.800,173.233 386.800 L 176.756 386.800 176.878 384.900 C 176.987 383.208,177.110 382.988,178.000 382.888 C 181.025 382.549,180.800 383.122,180.800 375.780 C 180.800 370.992,180.956 368.802,181.366 367.821 C 181.677 367.076,182.054 364.607,182.205 362.334 C 182.355 360.060,182.538 357.660,182.611 357.000 C 182.685 356.340,182.773 352.874,182.807 349.298 C 182.842 345.722,183.022 342.890,183.208 343.005 C 183.393 343.119,183.670 343.011,183.822 342.764 C 184.019 342.446,184.200 342.473,184.444 342.857 C 184.638 343.163,184.790 332.459,184.794 318.300 L 184.800 293.200 182.845 293.200 C 180.924 293.200,180.884 293.175,180.625 291.791 C 180.479 291.016,180.009 290.163,179.580 289.895 C 179.151 289.627,178.800 289.023,178.800 288.554 C 178.800 286.687,178.292 285.265,177.557 285.073 C 176.653 284.836,176.365 278.307,177.267 278.500 C 178.020 278.661,178.788 276.752,178.794 274.700 C 178.799 273.075,178.915 272.800,179.592 272.800 C 180.104 272.800,180.474 272.446,180.636 271.800 C 180.816 271.082,181.157 270.800,181.843 270.800 C 182.597 270.800,182.800 270.588,182.800 269.800 C 182.800 269.000,183.000 268.800,183.800 268.800 C 184.647 268.800,184.800 268.614,184.800 267.587 C 184.800 266.879,185.049 266.279,185.400 266.145 C 185.730 266.018,186.000 265.664,186.000 265.357 C 186.000 265.008,186.437 264.800,187.174 264.800 C 188.837 264.800,190.400 264.127,190.400 263.410 C 190.400 262.999,190.791 262.800,191.600 262.800 C 192.260 262.800,192.800 262.620,192.800 262.400 C 192.800 261.919,188.777 261.937,186.800 262.427 M208.800 262.748 C 208.800 263.303,209.181 263.582,210.197 263.773 C 211.224 263.966,211.657 264.288,211.834 264.993 C 211.966 265.520,212.874 266.632,213.851 267.465 C 215.324 268.721,215.608 269.186,215.514 270.190 C 215.423 271.152,215.556 271.400,216.160 271.402 C 217.392 271.405,217.552 272.564,217.536 281.320 C 217.518 290.589,217.360 291.739,216.073 291.928 C 215.362 292.032,215.200 292.321,215.200 293.484 C 215.200 294.649,214.872 295.232,213.422 296.641 L 211.645 298.368 211.667 304.084 C 211.692 310.233,212.007 313.046,212.658 312.922 C 212.883 312.879,213.074 313.059,213.082 313.322 C 213.090 313.585,213.208 315.780,213.344 318.200 C 213.480 320.620,213.684 324.760,213.797 327.400 C 214.099 334.408,214.401 337.654,214.825 338.446 C 215.045 338.858,215.200 348.145,215.200 360.974 L 215.200 382.800 216.600 382.800 C 217.499 382.800,218.000 382.991,218.000 383.332 C 218.000 383.625,218.495 384.114,219.100 384.419 C 219.705 384.724,220.260 385.009,220.332 385.052 C 220.405 385.096,220.285 385.468,220.064 385.880 C 219.737 386.491,219.805 386.629,220.432 386.629 C 220.953 386.629,221.200 386.350,221.200 385.763 C 221.200 385.287,221.470 384.674,221.800 384.400 C 222.130 384.126,222.400 383.654,222.400 383.351 C 222.400 383.048,222.601 382.800,222.846 382.800 C 223.135 382.800,223.089 382.484,222.715 381.900 C 222.341 381.317,221.966 378.744,221.649 374.600 C 221.380 371.080,220.994 367.120,220.790 365.800 C 220.587 364.480,220.230 362.069,219.997 360.441 C 219.765 358.814,219.499 357.360,219.406 357.210 C 218.997 356.548,216.961 328.490,216.401 315.800 C 215.625 298.202,215.823 296.078,218.420 294.151 C 223.924 290.065,224.129 274.330,218.734 269.995 C 217.853 269.287,216.811 267.963,216.418 267.054 C 215.128 264.066,208.800 260.489,208.800 262.748 " stroke="none" fill="#898889" fill-rule="evenodd"></path><path id="path1" d="M175.200 28.182 C 175.200 29.125,175.081 29.170,172.300 29.282 C 169.639 29.390,169.389 29.474,169.272 30.300 C 169.066 31.754,178.036 31.677,180.282 30.206 C 182.668 28.643,182.954 28.343,182.394 27.996 C 182.026 27.769,182.041 27.645,182.455 27.480 C 182.755 27.361,181.245 27.249,179.100 27.232 C 175.217 27.200,175.200 27.204,175.200 28.182 M214.800 27.985 C 214.800 28.383,215.250 29.003,215.800 29.363 C 216.350 29.724,216.800 30.284,216.800 30.609 C 216.800 31.099,217.656 31.200,221.796 31.200 L 226.791 31.200 226.711 30.228 C 226.666 29.694,226.533 29.265,226.415 29.276 C 224.159 29.476,222.845 29.128,222.728 28.300 C 222.549 27.043,214.800 26.735,214.800 27.985 M159.467 31.467 C 159.320 31.613,159.200 32.063,159.200 32.467 C 159.200 32.982,158.903 33.200,158.200 33.200 C 157.400 33.200,157.200 33.400,157.200 34.200 C 157.200 35.072,157.025 35.200,155.829 35.200 C 154.527 35.200,153.200 36.022,153.200 36.829 C 153.200 37.033,152.750 37.200,152.200 37.200 C 151.400 37.200,151.200 37.400,151.200 38.200 C 151.200 39.454,152.812 39.593,154.044 38.444 C 154.861 37.683,156.495 37.200,158.250 37.200 C 158.773 37.200,159.200 37.010,159.200 36.779 C 159.200 35.780,161.425 33.600,162.444 33.600 C 165.598 33.600,167.200 33.110,167.200 32.146 C 167.200 31.206,160.331 30.603,159.467 31.467 M230.800 32.134 C 230.800 32.984,231.032 33.144,232.608 33.380 C 233.603 33.530,234.728 33.985,235.108 34.393 C 235.489 34.801,236.299 35.260,236.909 35.413 C 237.519 35.566,238.239 36.007,238.509 36.392 C 238.779 36.777,239.594 37.223,240.319 37.382 C 241.045 37.542,241.853 38.016,242.115 38.436 C 242.927 39.736,246.800 39.541,246.800 38.200 C 246.800 37.650,246.665 37.221,246.500 37.247 C 244.367 37.584,242.800 37.141,242.800 36.200 C 242.800 35.400,242.600 35.200,241.800 35.200 C 241.000 35.200,240.800 35.000,240.800 34.200 C 240.800 33.267,240.667 33.200,238.800 33.200 C 236.845 33.200,236.568 32.980,236.733 31.558 C 236.749 31.425,235.420 31.280,233.781 31.237 C 230.866 31.160,230.800 31.180,230.800 32.134 M143.467 39.467 C 143.320 39.613,143.200 40.503,143.200 41.445 L 143.200 43.156 141.300 43.278 C 139.679 43.382,139.381 43.532,139.272 44.300 C 139.202 44.795,138.990 45.200,138.801 45.200 C 138.342 45.200,137.200 46.361,137.200 46.829 C 137.200 47.657,141.494 47.249,141.716 46.400 C 141.831 45.960,142.189 45.600,142.513 45.600 C 142.845 45.600,143.204 45.080,143.340 44.400 C 143.531 43.447,143.788 43.200,144.590 43.200 C 145.145 43.200,145.600 43.011,145.600 42.780 C 145.600 42.550,146.275 42.055,147.100 41.680 C 149.616 40.539,149.043 39.200,146.039 39.200 C 144.771 39.200,143.613 39.320,143.467 39.467 M248.800 40.377 C 248.800 41.229,248.993 41.600,249.437 41.600 C 249.788 41.600,250.164 41.941,250.273 42.357 C 250.388 42.796,250.956 43.211,251.623 43.345 C 252.257 43.471,253.148 43.948,253.603 44.403 C 254.059 44.859,254.875 45.400,255.416 45.606 C 255.957 45.812,256.400 46.255,256.400 46.590 C 256.400 47.020,256.812 47.200,257.800 47.200 C 258.570 47.200,259.200 47.035,259.200 46.833 C 259.200 45.947,258.661 45.200,258.021 45.200 C 257.640 45.200,257.123 44.750,256.873 44.200 C 256.622 43.650,256.163 43.200,255.852 43.200 C 255.541 43.200,255.174 42.750,255.036 42.200 C 254.861 41.505,254.511 41.200,253.887 41.200 C 253.340 41.200,252.836 40.849,252.595 40.300 C 251.895 38.705,248.800 38.768,248.800 40.377 M133.453 47.481 C 133.314 47.620,133.200 48.063,133.200 48.467 C 133.200 48.982,132.903 49.200,132.200 49.200 C 131.407 49.200,131.200 49.402,131.200 50.173 C 131.200 50.786,130.912 51.238,130.420 51.394 C 129.992 51.530,129.530 51.992,129.394 52.420 C 129.238 52.912,128.786 53.200,128.173 53.200 C 127.402 53.200,127.200 53.407,127.200 54.200 C 127.200 55.000,127.000 55.200,126.200 55.200 C 125.400 55.200,125.200 55.400,125.200 56.200 C 125.200 57.000,125.000 57.200,124.200 57.200 C 123.400 57.200,123.200 57.400,123.200 58.200 C 123.200 59.000,123.000 59.200,122.200 59.200 C 121.400 59.200,121.200 59.400,121.200 60.200 C 121.200 61.000,121.000 61.200,120.200 61.200 C 119.428 61.200,119.200 61.406,119.200 62.105 C 119.200 62.660,118.852 63.163,118.300 63.405 C 117.805 63.622,117.374 64.160,117.343 64.600 C 117.311 65.040,117.266 65.805,117.243 66.300 C 117.210 66.982,116.958 67.200,116.200 67.200 C 115.407 67.200,115.200 67.402,115.200 68.173 C 115.200 68.786,114.912 69.238,114.420 69.394 C 113.992 69.530,113.530 69.992,113.394 70.420 C 113.238 70.912,112.786 71.200,112.173 71.200 C 111.307 71.200,111.200 71.373,111.200 72.777 C 111.200 74.909,113.275 74.770,113.664 72.612 C 113.759 72.088,114.330 71.677,115.367 71.386 C 116.360 71.107,117.045 70.630,117.251 70.074 C 117.429 69.593,117.831 69.200,118.144 69.200 C 118.913 69.200,119.200 68.318,119.200 65.957 C 119.200 63.838,119.894 63.200,122.199 63.200 C 122.787 63.200,123.240 62.904,123.394 62.420 C 123.530 61.992,123.972 61.536,124.377 61.407 C 124.782 61.279,125.210 60.806,125.327 60.357 C 125.445 59.908,125.914 59.443,126.370 59.324 C 127.020 59.154,127.200 58.788,127.200 57.633 C 127.200 55.770,127.775 55.200,129.653 55.200 C 130.794 55.200,131.206 55.012,131.400 54.401 C 131.539 53.961,132.091 53.492,132.627 53.358 C 133.162 53.223,133.600 52.846,133.600 52.519 C 133.600 52.192,133.960 51.831,134.400 51.716 C 134.911 51.582,135.200 51.170,135.200 50.577 C 135.200 50.066,135.359 49.549,135.552 49.430 C 136.630 48.763,136.251 47.324,134.985 47.276 C 134.281 47.250,133.591 47.342,133.453 47.481 M260.000 48.210 C 260.000 49.010,260.247 49.269,261.188 49.458 C 261.842 49.588,262.480 50.022,262.607 50.422 C 262.734 50.822,263.232 51.206,263.714 51.275 C 264.371 51.369,264.646 51.753,264.818 52.814 C 264.943 53.591,265.181 54.446,265.347 54.714 C 265.694 55.275,269.200 55.384,269.200 54.833 C 269.200 53.997,268.677 53.200,268.129 53.200 C 267.340 53.200,266.496 52.311,266.701 51.696 C 266.801 51.396,266.498 51.200,265.933 51.199 C 265.146 51.199,264.993 50.984,264.953 49.827 C 264.872 47.421,264.641 47.200,262.213 47.200 C 260.113 47.200,260.000 47.252,260.000 48.210 M269.637 55.931 C 269.340 56.486,269.433 56.822,270.023 57.327 C 270.450 57.693,270.800 58.264,270.800 58.596 C 270.800 58.974,271.175 59.200,271.800 59.200 C 272.733 59.200,272.800 59.333,272.800 61.200 L 272.800 63.200 274.300 63.247 C 275.125 63.273,275.935 63.273,276.100 63.247 C 276.265 63.221,276.423 63.380,276.450 63.600 C 276.478 63.820,276.545 64.180,276.600 64.400 C 276.655 64.620,276.723 64.980,276.750 65.200 C 276.778 65.420,277.074 65.600,277.409 65.600 C 277.743 65.600,278.218 66.041,278.464 66.580 C 278.709 67.119,279.407 67.733,280.014 67.945 L 281.117 68.330 280.994 66.348 C 280.869 64.349,280.269 63.145,279.447 63.242 C 277.898 63.425,277.198 63.131,276.965 62.203 C 276.827 61.654,276.577 61.291,276.409 61.394 C 275.939 61.685,274.503 60.265,274.696 59.700 C 274.797 59.405,274.524 59.200,274.033 59.200 C 273.374 59.200,273.200 58.949,273.200 58.000 C 273.200 57.340,273.185 56.665,273.166 56.500 C 273.011 55.130,270.300 54.693,269.637 55.931 M184.800 67.386 C 184.800 68.043,183.607 68.800,182.573 68.800 C 182.200 68.800,181.601 69.137,181.244 69.549 C 180.852 70.002,179.764 70.412,178.497 70.587 C 176.617 70.845,176.400 70.977,176.400 71.854 C 176.400 73.302,182.519 73.169,182.726 71.717 C 182.840 70.913,183.108 70.824,185.726 70.717 C 188.360 70.610,188.611 70.525,188.728 69.700 L 188.856 68.800 197.933 68.800 C 206.963 68.800,207.012 68.805,207.405 69.700 C 207.768 70.527,208.102 70.609,211.500 70.715 C 215.134 70.828,215.200 70.848,215.200 71.815 C 215.200 72.780,215.266 72.800,218.400 72.800 C 221.547 72.800,221.600 72.783,221.600 71.800 C 221.600 70.966,221.410 70.800,220.456 70.800 C 217.618 70.800,215.600 70.297,215.600 69.590 C 215.600 69.110,215.172 68.809,214.241 68.634 C 213.493 68.494,212.430 68.024,211.877 67.589 C 210.532 66.531,184.800 66.338,184.800 67.386 M280.800 70.186 C 280.800 70.755,281.131 71.349,281.583 71.591 C 282.016 71.822,282.481 72.625,282.624 73.386 C 282.776 74.199,283.274 75.019,283.841 75.390 C 284.368 75.736,284.800 76.272,284.800 76.582 C 284.800 76.892,285.142 77.255,285.560 77.387 C 285.978 77.520,286.432 78.072,286.568 78.614 C 286.960 80.176,289.090 79.811,288.988 78.200 C 288.960 77.760,288.906 76.991,288.868 76.490 C 288.826 75.924,288.422 75.436,287.797 75.199 C 287.245 74.989,286.840 74.603,286.897 74.341 C 286.954 74.080,286.550 73.629,286.000 73.340 C 285.450 73.051,285.049 72.560,285.108 72.249 C 285.170 71.922,284.679 71.497,283.943 71.240 C 283.243 70.996,282.788 70.679,282.932 70.535 C 283.341 70.126,282.384 69.200,281.551 69.200 C 281.019 69.200,280.800 69.488,280.800 70.186 M168.800 73.771 C 168.800 74.965,167.212 76.286,165.359 76.634 C 164.612 76.774,164.000 77.039,164.000 77.222 C 164.000 77.405,163.460 77.874,162.800 78.264 C 162.009 78.731,161.600 79.292,161.600 79.910 C 161.600 81.280,164.531 81.083,164.728 79.700 C 164.841 78.906,165.087 78.800,166.828 78.800 C 168.650 78.800,168.800 78.726,168.800 77.828 C 168.800 77.124,169.049 76.820,169.700 76.728 C 170.271 76.647,170.646 76.279,170.725 75.721 C 170.831 74.979,171.144 74.823,172.725 74.721 C 174.321 74.618,174.619 74.466,174.728 73.700 C 174.851 72.835,174.739 72.800,171.828 72.800 C 168.889 72.800,168.800 72.829,168.800 73.771 M223.272 73.700 C 223.353 74.270,223.721 74.646,224.275 74.725 C 224.821 74.802,225.198 75.179,225.275 75.725 C 225.381 76.464,225.696 76.619,227.300 76.722 C 229.025 76.833,229.200 76.935,229.200 77.839 C 229.200 78.404,229.417 78.807,229.700 78.770 C 230.794 78.628,231.150 78.838,231.272 79.700 C 231.453 80.971,233.793 81.234,234.111 80.019 C 234.362 79.060,230.946 75.301,229.089 74.491 C 228.478 74.225,227.873 73.735,227.746 73.403 C 227.319 72.290,223.111 72.568,223.272 73.700 M109.467 75.467 C 109.320 75.613,109.200 76.513,109.200 77.467 C 109.200 79.049,109.113 79.200,108.200 79.200 C 107.400 79.200,107.200 79.400,107.200 80.200 C 107.200 81.000,107.000 81.200,106.200 81.200 C 105.428 81.200,105.200 81.406,105.200 82.105 C 105.200 82.660,104.852 83.163,104.300 83.405 C 102.918 84.011,102.694 88.872,104.057 88.664 C 104.621 88.578,105.110 88.090,105.377 87.348 C 105.778 86.230,106.276 85.561,108.248 83.490 C 108.714 83.001,109.228 81.993,109.390 81.251 C 109.571 80.424,109.977 79.826,110.442 79.705 C 111.554 79.414,111.576 75.200,110.467 75.200 C 110.063 75.200,109.613 75.320,109.467 75.467 M158.800 81.366 C 158.800 81.678,158.260 82.172,157.600 82.464 C 156.940 82.756,156.400 83.226,156.400 83.508 C 156.400 83.789,155.950 84.191,155.400 84.400 C 154.788 84.633,154.400 85.094,154.400 85.590 C 154.400 86.133,154.137 86.400,153.600 86.400 C 152.978 86.400,152.800 86.667,152.800 87.600 C 152.800 88.604,152.641 88.800,151.827 88.800 C 151.214 88.800,150.762 89.088,150.606 89.580 C 150.470 90.008,150.008 90.470,149.580 90.606 C 149.151 90.743,148.800 91.174,148.800 91.565 C 148.800 91.956,148.422 92.618,147.959 93.037 C 146.931 93.967,145.940 95.807,146.283 96.149 C 146.421 96.287,146.143 96.400,145.667 96.400 C 144.970 96.400,144.800 96.636,144.800 97.600 C 144.800 98.613,144.956 98.800,145.800 98.800 C 146.600 98.800,146.800 98.600,146.800 97.800 C 146.800 97.000,147.000 96.800,147.800 96.800 C 148.600 96.800,148.800 96.600,148.800 95.800 C 148.800 95.000,149.000 94.800,149.800 94.800 C 150.600 94.800,150.800 94.600,150.800 93.800 C 150.800 93.000,151.000 92.800,151.800 92.800 C 152.732 92.800,152.800 92.665,152.800 90.822 L 152.800 88.844 154.700 88.722 C 156.304 88.619,156.619 88.464,156.725 87.725 C 156.802 87.179,157.179 86.802,157.725 86.725 C 158.279 86.646,158.647 86.270,158.728 85.700 C 158.837 84.934,159.386 84.620,160.430 84.729 C 160.556 84.742,160.700 83.864,160.749 82.777 C 160.835 80.901,160.787 80.800,159.820 80.800 C 159.207 80.800,158.800 81.026,158.800 81.366 M235.292 81.800 C 235.353 82.540,235.604 82.800,236.259 82.800 C 236.873 82.800,237.184 83.076,237.272 83.700 C 237.354 84.278,237.722 84.646,238.300 84.728 C 239.050 84.834,239.200 85.105,239.200 86.348 C 239.200 88.236,239.771 88.800,241.680 88.800 C 243.124 88.800,243.397 89.076,243.275 90.417 C 243.264 90.536,243.623 90.662,244.073 90.696 C 245.096 90.773,245.228 90.907,245.307 91.955 C 245.351 92.550,245.641 92.800,246.285 92.800 C 247.116 92.800,247.200 92.983,247.200 94.800 C 247.200 96.651,247.272 96.800,248.172 96.800 C 248.876 96.800,249.180 97.049,249.272 97.700 C 249.353 98.271,249.721 98.646,250.279 98.725 C 251.021 98.831,251.177 99.144,251.279 100.725 C 251.382 102.321,251.534 102.619,252.300 102.728 C 252.951 102.820,253.200 103.124,253.200 103.828 C 253.200 104.598,253.408 104.800,254.200 104.800 C 255.547 104.800,255.758 101.039,254.431 100.692 C 253.877 100.547,253.588 99.996,253.396 98.715 C 253.143 97.022,253.052 96.922,251.465 96.570 C 249.921 96.227,249.772 96.076,249.421 94.488 C 249.111 93.089,248.892 92.797,248.221 92.888 C 247.496 92.987,247.386 92.755,247.279 90.900 L 247.158 88.800 245.679 88.753 C 244.866 88.727,244.065 88.727,243.900 88.753 C 243.735 88.779,243.600 88.346,243.600 87.790 C 243.600 87.081,243.302 86.667,242.600 86.400 C 242.050 86.191,241.600 85.745,241.600 85.410 C 241.600 85.074,241.420 84.778,241.200 84.750 C 240.980 84.723,240.620 84.655,240.400 84.600 C 240.180 84.545,239.820 84.478,239.600 84.450 C 239.380 84.423,239.200 83.590,239.200 82.600 L 239.200 80.800 237.204 80.800 C 235.321 80.800,235.214 80.856,235.292 81.800 M288.800 83.181 C 288.800 85.815,289.408 87.030,290.944 87.467 C 292.060 87.785,292.244 88.053,292.600 89.883 C 293.532 94.676,297.367 97.690,297.119 93.433 C 297.016 91.672,296.880 91.383,296.100 91.272 C 295.545 91.193,295.181 90.849,295.150 90.372 C 295.123 89.947,295.078 89.215,295.050 88.744 C 295.009 88.038,294.528 87.549,293.270 86.937 C 293.198 86.902,293.092 86.542,293.034 86.137 C 292.975 85.731,292.539 85.342,292.064 85.272 C 291.376 85.170,291.200 84.871,291.200 83.805 C 291.200 81.856,290.837 81.200,289.757 81.200 C 288.876 81.200,288.800 81.358,288.800 83.181 M101.829 91.829 C 101.483 92.174,101.200 93.074,101.200 93.829 C 101.200 95.025,101.072 95.200,100.200 95.200 C 99.267 95.200,99.200 95.333,99.200 97.200 C 99.200 99.067,99.133 99.200,98.200 99.200 C 97.267 99.200,97.200 99.333,97.200 101.200 C 97.200 103.067,97.133 103.200,96.200 103.200 C 95.212 103.200,95.200 103.240,95.200 106.600 C 95.200 109.927,95.221 110.000,96.165 110.000 C 96.978 110.000,97.172 109.750,97.398 108.412 C 97.546 107.538,97.986 106.413,98.377 105.912 C 99.048 105.050,99.753 102.079,99.755 100.100 C 99.755 99.539,99.972 99.238,100.330 99.300 C 100.681 99.361,101.121 98.782,101.462 97.810 C 101.769 96.936,102.286 96.072,102.610 95.890 C 103.017 95.662,103.200 94.885,103.200 93.380 C 103.200 91.113,102.892 90.765,101.829 91.829 M297.052 98.100 C 296.483 100.225,296.768 103.267,297.557 103.473 C 298.445 103.705,298.800 105.122,298.800 108.432 C 298.800 110.386,298.962 110.926,299.800 111.764 C 300.350 112.314,300.800 113.209,300.800 113.753 C 300.800 114.298,301.097 115.040,301.459 115.402 C 302.358 116.301,302.762 118.682,302.783 123.204 C 302.800 127.031,303.797 129.349,304.564 127.348 C 305.290 125.457,304.799 114.045,303.967 113.462 C 303.461 113.108,303.090 112.351,303.024 111.539 C 302.837 109.259,302.809 109.147,302.481 109.350 C 301.702 109.832,301.167 108.789,301.106 106.668 C 301.070 105.420,300.903 104.400,300.733 104.400 C 300.564 104.400,300.529 104.130,300.655 103.800 C 300.815 103.384,300.628 103.200,300.043 103.200 C 299.442 103.200,299.193 102.941,299.177 102.300 C 299.071 98.177,297.738 95.541,297.052 98.100 M143.337 100.707 C 143.082 100.869,142.746 101.683,142.590 102.515 C 142.366 103.708,142.040 104.140,141.053 104.552 C 139.311 105.280,138.938 105.874,138.633 108.403 C 138.356 110.698,137.960 111.697,137.355 111.627 C 137.160 111.604,136.945 112.309,136.877 113.193 C 136.763 114.682,136.829 114.800,137.777 114.800 C 138.594 114.800,138.800 114.604,138.800 113.828 C 138.800 113.124,139.049 112.820,139.700 112.728 C 140.461 112.620,140.618 112.319,140.718 110.787 C 140.811 109.366,141.027 108.890,141.718 108.587 C 142.393 108.291,142.629 107.801,142.723 106.500 C 142.832 104.998,142.960 104.800,143.823 104.800 C 144.741 104.800,144.800 104.666,144.800 102.600 C 144.800 100.418,144.467 99.988,143.337 100.707 M255.282 109.700 C 255.390 112.361,255.474 112.611,256.300 112.728 C 256.902 112.813,257.214 113.144,257.243 113.728 C 257.266 114.208,257.311 114.960,257.343 115.400 C 257.374 115.840,257.805 116.378,258.300 116.595 C 259.052 116.925,259.200 117.303,259.200 118.895 L 259.200 120.800 261.200 120.800 C 263.067 120.800,263.200 120.867,263.200 121.800 C 263.200 122.727,263.340 122.800,265.105 122.800 C 266.697 122.800,267.075 122.948,267.405 123.700 C 267.710 124.395,268.187 124.628,269.500 124.723 C 271.121 124.840,271.456 125.180,271.247 126.500 C 271.221 126.665,271.335 126.779,271.500 126.753 C 274.217 126.324,277.200 126.872,277.200 127.800 C 277.200 128.667,277.373 128.796,278.500 128.772 C 281.017 128.717,281.994 127.545,280.202 126.728 C 279.651 126.477,279.200 125.961,279.200 125.581 C 279.200 125.008,278.725 124.863,276.408 124.733 C 273.682 124.578,273.572 124.530,271.781 122.687 L 269.947 120.800 266.573 120.800 L 263.200 120.800 263.200 119.600 C 263.200 118.842,262.995 118.400,262.644 118.400 C 262.332 118.400,261.859 117.622,261.564 116.626 C 261.271 115.633,260.750 114.776,260.382 114.679 C 259.945 114.565,259.640 113.896,259.474 112.690 C 259.337 111.691,258.770 110.201,258.213 109.381 C 257.656 108.560,257.200 107.643,257.200 107.344 C 257.200 107.028,256.774 106.800,256.182 106.800 C 255.175 106.800,255.166 106.829,255.282 109.700 M93.467 115.467 C 93.320 115.613,93.200 117.371,93.200 119.372 C 93.200 122.761,93.138 123.037,92.300 123.405 C 91.435 123.785,91.397 124.015,91.323 129.300 L 91.246 134.800 92.223 134.800 C 93.002 134.800,93.200 135.005,93.200 135.816 L 93.200 136.831 96.700 136.716 C 99.890 136.610,100.235 136.520,100.595 135.700 C 100.925 134.948,101.303 134.800,102.895 134.800 C 104.649 134.800,104.800 134.722,104.800 133.822 C 104.800 132.939,104.985 132.832,106.700 132.722 C 108.321 132.618,108.619 132.468,108.728 131.700 C 108.841 130.906,109.087 130.800,110.828 130.800 C 112.665 130.800,112.800 130.731,112.800 129.800 C 112.800 128.822,112.733 128.800,109.800 128.800 C 107.116 128.800,106.800 128.880,106.800 129.562 C 106.800 130.176,106.402 130.380,104.756 130.606 C 103.613 130.763,102.384 131.216,101.967 131.633 C 101.556 132.044,100.721 132.503,100.110 132.654 C 99.500 132.806,98.765 133.260,98.477 133.665 C 97.705 134.751,96.373 134.558,94.861 133.142 L 93.523 131.887 93.661 128.511 C 93.770 125.867,93.952 125.025,94.500 124.624 C 95.583 123.832,95.553 115.200,94.467 115.200 C 94.063 115.200,93.613 115.320,93.467 115.467 M128.105 121.580 C 127.837 122.009,126.984 122.479,126.209 122.625 C 125.428 122.771,124.800 123.128,124.800 123.426 C 124.800 123.954,122.510 124.793,121.058 124.798 C 120.650 124.799,119.781 125.250,119.127 125.800 C 118.473 126.350,117.502 126.800,116.969 126.800 C 116.202 126.800,116.000 127.008,116.000 127.800 C 116.000 128.756,116.107 128.800,118.400 128.800 C 120.681 128.800,120.800 128.751,120.800 127.818 C 120.800 126.885,120.932 126.831,123.500 126.718 C 125.842 126.616,126.251 126.483,126.588 125.716 C 126.801 125.230,127.341 124.780,127.788 124.716 C 128.279 124.646,128.651 124.244,128.728 123.700 C 128.845 122.874,131.316 122.450,134.415 122.724 C 134.533 122.735,134.666 122.306,134.711 121.772 C 134.823 120.418,128.937 120.248,128.105 121.580 M125.200 128.289 L 125.200 129.400 130.374 129.303 C 136.349 129.190,136.800 129.294,136.800 130.781 C 136.800 132.217,137.798 133.047,139.949 133.400 C 141.179 133.602,141.756 133.911,141.895 134.443 C 142.214 135.661,144.902 135.525,144.728 134.300 C 144.646 133.722,144.278 133.354,143.700 133.272 C 143.049 133.180,142.800 132.876,142.800 132.172 C 142.800 131.637,142.665 131.221,142.500 131.247 C 140.367 131.584,138.800 131.141,138.800 130.200 C 138.800 129.408,138.598 129.200,137.828 129.200 C 137.124 129.200,136.820 128.951,136.728 128.300 C 136.603 127.421,136.468 127.397,130.900 127.289 L 125.200 127.178 125.200 128.289 M261.200 128.178 C 261.200 129.061,261.015 129.168,259.300 129.278 C 257.679 129.382,257.381 129.532,257.272 130.300 C 257.180 130.951,256.876 131.200,256.172 131.200 C 255.402 131.200,255.200 131.408,255.200 132.200 C 255.200 133.000,255.000 133.200,254.200 133.200 C 253.400 133.200,253.200 133.400,253.200 134.200 C 253.200 135.178,253.133 135.200,250.200 135.200 C 247.285 135.200,247.200 135.228,247.200 136.178 C 247.200 137.061,247.015 137.168,245.300 137.278 C 243.679 137.382,243.381 137.532,243.272 138.300 C 243.180 138.951,242.876 139.200,242.172 139.200 C 241.402 139.200,241.200 139.408,241.200 140.200 C 241.200 141.000,241.000 141.200,240.200 141.200 L 239.200 141.200 239.200 148.178 L 239.200 155.156 237.300 155.278 C 235.679 155.382,235.381 155.532,235.272 156.300 C 235.159 157.094,234.913 157.200,233.172 157.200 C 231.343 157.200,231.200 157.272,231.200 158.185 C 231.200 159.152,231.134 159.172,227.500 159.285 C 224.134 159.390,223.765 159.479,223.416 160.275 C 223.204 160.757,222.696 161.238,222.286 161.346 C 221.876 161.453,221.443 161.914,221.324 162.370 C 221.141 163.067,220.794 163.200,219.153 163.200 C 217.336 163.200,217.200 163.270,217.200 164.200 C 217.200 165.000,217.000 165.200,216.200 165.200 C 215.400 165.200,215.200 165.400,215.200 166.200 L 215.200 167.200 207.200 167.200 L 199.200 167.200 199.200 215.000 L 199.200 262.800 201.172 262.800 C 202.913 262.800,203.159 262.906,203.272 263.700 C 203.349 264.244,203.721 264.646,204.212 264.716 C 204.659 264.780,205.199 265.230,205.412 265.716 C 205.709 266.393,206.198 266.629,207.500 266.723 C 209.002 266.832,209.200 266.960,209.200 267.823 C 209.200 268.598,209.406 268.800,210.200 268.800 C 211.005 268.800,211.200 268.999,211.200 269.821 C 211.200 270.801,211.284 270.837,213.300 270.721 C 216.156 270.556,216.323 269.573,213.853 267.467 C 212.875 266.633,211.966 265.520,211.834 264.993 C 211.657 264.288,211.224 263.966,210.197 263.773 C 209.222 263.590,208.800 263.296,208.800 262.798 C 208.800 262.006,208.036 261.600,206.546 261.600 C 206.002 261.600,204.937 261.105,204.179 260.500 L 202.800 259.400 202.800 233.242 L 202.800 207.084 203.897 205.350 C 204.500 204.397,205.484 203.414,206.083 203.165 C 206.683 202.917,207.282 202.371,207.415 201.953 C 207.716 201.004,209.161 200.258,211.980 199.594 C 213.559 199.223,214.663 198.621,215.980 197.413 C 218.216 195.363,219.772 194.306,221.600 193.597 C 222.370 193.298,223.403 192.747,223.897 192.372 C 224.390 191.997,225.470 191.566,226.297 191.414 C 227.123 191.263,228.610 190.627,229.600 190.003 C 231.274 188.947,232.238 188.640,233.514 188.754 C 233.797 188.779,234.396 189.565,234.844 190.500 C 236.743 194.454,236.981 194.783,237.969 194.791 C 238.501 194.796,239.236 194.530,239.601 194.199 C 240.300 193.567,245.571 191.600,246.568 191.600 C 246.889 191.600,248.009 190.858,249.056 189.951 C 250.104 189.044,251.780 187.957,252.781 187.536 C 253.781 187.114,255.050 186.251,255.600 185.617 C 256.337 184.768,257.397 184.251,259.626 183.654 C 261.913 183.041,263.037 182.483,264.226 181.372 C 266.087 179.633,269.137 177.600,269.887 177.600 C 270.179 177.600,271.088 177.166,271.909 176.637 C 272.729 176.107,273.985 175.552,274.700 175.405 C 276.525 175.028,276.590 173.142,274.804 172.402 C 274.147 172.129,273.002 171.235,272.261 170.415 C 271.114 169.145,270.587 168.885,268.714 168.665 C 266.422 168.396,259.593 165.482,257.400 163.837 C 255.371 162.316,252.307 160.909,249.993 160.436 C 245.043 159.423,243.436 157.168,243.414 151.200 C 243.385 143.244,245.158 142.848,254.655 148.693 C 257.247 150.289,259.483 151.353,260.855 151.642 C 263.295 152.158,264.148 152.543,265.688 153.823 C 266.286 154.321,267.658 155.021,268.738 155.379 C 269.953 155.783,271.237 156.612,272.111 157.556 C 275.816 161.560,281.971 160.609,288.567 155.013 C 290.463 153.405,291.713 152.691,293.408 152.248 C 294.665 151.920,296.078 151.307,296.547 150.887 C 297.854 149.715,302.881 147.521,303.300 147.940 C 304.290 148.930,304.381 156.467,304.390 238.227 C 304.402 339.556,305.044 327.947,299.216 331.789 C 297.038 333.225,295.091 334.400,294.888 334.400 C 294.686 334.400,293.801 334.921,292.922 335.558 C 292.043 336.195,290.768 337.003,290.090 337.354 C 289.411 337.705,288.448 338.717,287.950 339.604 C 287.225 340.894,286.760 341.261,285.622 341.444 C 283.300 341.816,280.674 343.299,279.678 344.800 C 279.168 345.570,278.086 346.540,277.275 346.956 C 276.464 347.371,275.291 348.136,274.669 348.656 C 274.047 349.175,273.360 349.600,273.141 349.600 C 272.211 349.600,266.450 353.568,264.574 355.500 C 263.453 356.655,262.190 357.602,261.768 357.604 C 260.053 357.613,256.854 359.530,255.818 361.171 C 255.253 362.067,254.632 362.800,254.440 362.800 C 254.247 362.800,253.174 363.430,252.055 364.200 C 250.935 364.970,249.762 365.600,249.447 365.600 C 249.133 365.600,248.106 366.243,247.166 367.029 C 246.225 367.814,244.765 368.810,243.920 369.241 C 243.076 369.671,241.628 370.828,240.703 371.812 C 239.777 372.795,238.786 373.600,238.501 373.600 C 237.147 373.600,232.951 375.978,232.200 377.171 C 231.076 378.958,227.353 381.411,225.260 381.745 C 223.574 382.014,222.400 382.743,222.400 383.522 C 222.400 383.731,222.130 384.126,221.800 384.400 C 219.904 385.973,221.007 386.800,225.000 386.800 C 228.787 386.800,228.800 386.796,228.800 385.800 C 228.800 385.000,229.000 384.800,229.800 384.800 C 230.600 384.800,230.800 384.600,230.800 383.800 C 230.800 382.867,230.933 382.800,232.800 382.800 C 234.667 382.800,234.800 382.733,234.800 381.800 C 234.800 381.000,235.000 380.800,235.800 380.800 C 236.600 380.800,236.800 380.600,236.800 379.800 C 236.800 378.867,236.933 378.800,238.800 378.800 L 240.800 378.800 240.800 376.800 L 240.800 374.800 243.800 374.800 C 246.733 374.800,246.800 374.778,246.800 373.800 C 246.800 373.000,247.000 372.800,247.800 372.800 C 248.600 372.800,248.800 372.600,248.800 371.800 C 248.800 371.000,249.000 370.800,249.800 370.800 C 250.600 370.800,250.800 370.600,250.800 369.800 C 250.800 368.869,250.935 368.800,252.772 368.800 C 254.513 368.800,254.759 368.694,254.872 367.900 C 254.981 367.134,255.279 366.982,256.875 366.879 C 258.444 366.778,258.770 366.617,258.875 365.896 C 258.953 365.358,259.377 364.945,260.000 364.800 C 260.623 364.655,261.047 364.242,261.125 363.705 C 261.227 363.004,261.562 362.821,262.925 362.722 C 264.580 362.601,264.604 362.577,264.967 360.700 L 265.334 358.800 268.024 358.800 C 270.539 358.800,270.729 358.737,270.957 357.828 C 271.110 357.221,271.540 356.807,272.101 356.728 C 272.678 356.646,273.046 356.278,273.128 355.700 C 273.208 355.135,273.533 354.800,274.000 354.800 C 274.463 354.800,274.793 354.466,274.872 353.916 C 274.953 353.359,275.369 352.946,276.000 352.797 C 276.645 352.645,277.000 352.284,277.000 351.781 C 277.000 351.121,277.325 350.981,279.100 350.879 C 281.014 350.769,281.200 350.673,281.200 349.802 C 281.200 348.963,281.408 348.831,282.900 348.723 C 284.298 348.622,284.622 348.444,284.725 347.724 C 284.812 347.111,285.172 346.811,285.925 346.724 C 286.687 346.636,287.037 346.338,287.128 345.700 C 287.220 345.049,287.524 344.800,288.228 344.800 C 288.998 344.800,289.200 344.592,289.200 343.800 C 289.200 342.867,289.333 342.800,291.200 342.800 C 293.067 342.800,293.200 342.733,293.200 341.800 C 293.200 340.885,293.350 340.800,294.957 340.800 C 296.899 340.800,297.200 340.447,297.200 338.167 C 297.200 336.814,297.219 336.800,298.992 336.800 C 300.571 336.800,300.815 336.681,301.036 335.800 C 301.256 334.923,301.503 334.800,303.043 334.800 C 304.650 334.800,304.800 334.715,304.800 333.800 C 304.800 333.000,305.000 332.800,305.800 332.800 C 306.600 332.800,306.800 332.600,306.800 331.800 C 306.800 331.000,307.000 330.800,307.800 330.800 C 308.572 330.800,308.800 330.594,308.800 329.895 C 308.800 329.340,309.148 328.837,309.700 328.595 L 310.600 328.200 310.600 236.800 L 310.600 145.400 309.700 145.272 C 309.049 145.180,308.800 144.876,308.800 144.172 C 308.800 143.272,308.651 143.200,306.800 143.200 C 304.933 143.200,304.800 143.133,304.800 142.200 C 304.800 141.284,304.651 141.200,303.028 141.200 C 301.495 141.200,301.238 141.079,301.128 140.300 C 301.019 139.534,300.721 139.382,299.125 139.279 C 297.544 139.177,297.231 139.021,297.125 138.279 C 297.020 137.539,296.706 137.381,295.138 137.280 C 293.543 137.177,293.241 137.019,293.031 136.180 C 292.791 135.224,292.689 135.200,288.887 135.200 C 285.229 135.200,284.965 135.145,284.595 134.300 C 284.307 133.645,283.802 133.367,282.738 133.278 C 281.570 133.181,281.226 132.959,281.030 132.178 C 280.813 131.313,280.566 131.200,278.887 131.200 C 277.303 131.200,276.924 131.051,276.595 130.300 C 276.305 129.639,275.803 129.367,274.702 129.276 C 273.497 129.176,273.155 128.960,272.958 128.176 L 272.713 127.200 266.957 127.200 L 261.200 127.200 261.200 128.178 M285.292 129.800 C 285.351 130.514,285.609 130.800,286.192 130.800 C 286.657 130.800,287.181 131.189,287.405 131.700 C 287.749 132.484,288.143 132.615,290.474 132.718 C 292.885 132.824,293.161 132.923,293.274 133.718 C 293.381 134.465,293.691 134.619,295.300 134.722 C 297.133 134.840,297.462 135.140,297.247 136.500 C 297.221 136.665,298.910 136.800,301.000 136.800 L 304.800 136.800 304.800 134.824 C 304.800 133.737,304.651 132.755,304.469 132.643 C 303.917 132.301,302.400 132.859,302.400 133.404 C 302.400 134.563,299.721 134.745,298.562 133.665 C 298.128 133.261,297.265 132.803,296.644 132.647 C 296.015 132.489,295.425 132.018,295.311 131.582 C 295.154 130.981,294.759 130.800,293.603 130.800 C 291.130 130.800,289.641 130.360,289.385 129.552 C 288.967 128.236,285.181 128.465,285.292 129.800 M119.680 129.680 C 119.416 129.944,119.200 130.394,119.200 130.680 C 119.200 130.966,118.975 131.217,118.700 131.237 C 118.425 131.257,117.660 131.302,117.000 131.337 C 116.176 131.380,115.676 131.682,115.405 132.300 C 115.188 132.795,114.648 133.218,114.205 133.239 C 111.512 133.371,111.398 133.412,111.272 134.300 C 111.151 135.155,111.276 135.200,113.772 135.200 C 115.813 135.200,116.400 135.069,116.400 134.614 C 116.400 133.775,117.691 133.200,119.574 133.200 C 120.702 133.200,121.200 133.028,121.200 132.639 C 121.200 132.061,123.150 131.200,124.460 131.200 C 125.380 131.200,125.466 129.788,124.567 129.443 C 123.467 129.021,120.180 129.180,119.680 129.680 M103.200 136.200 C 103.200 137.133,103.067 137.200,101.200 137.200 C 99.333 137.200,99.200 137.267,99.200 138.200 C 99.200 139.133,99.067 139.200,97.200 139.200 C 95.333 139.200,95.200 139.267,95.200 140.200 C 95.200 141.178,95.133 141.200,92.200 141.200 C 89.267 141.200,89.200 141.222,89.200 142.200 C 89.200 143.582,95.264 143.776,95.991 142.417 C 96.224 141.981,97.027 141.519,97.805 141.373 C 99.052 141.139,99.380 140.812,99.257 139.928 C 99.236 139.778,100.249 139.528,101.509 139.373 C 103.025 139.186,104.183 138.770,104.931 138.145 C 105.553 137.625,106.387 137.200,106.784 137.200 C 107.479 137.200,108.150 135.883,107.690 135.423 C 106.870 134.603,103.200 135.238,103.200 136.200 M146.800 136.200 C 146.800 136.907,147.017 137.200,147.542 137.200 C 147.949 137.200,148.755 137.638,149.333 138.173 C 149.910 138.707,150.881 139.202,151.491 139.273 C 152.365 139.373,152.627 139.634,152.727 140.500 C 152.800 141.139,153.097 141.600,153.436 141.600 C 153.757 141.600,154.186 142.036,154.388 142.569 C 154.602 143.131,155.145 143.594,155.678 143.669 C 156.757 143.822,156.687 143.411,156.750 149.953 C 156.797 154.811,156.848 155.119,157.630 155.324 C 158.086 155.443,158.556 155.910,158.674 156.361 C 158.822 156.926,159.154 157.141,159.740 157.052 C 161.040 156.853,161.261 153.405,159.980 153.308 C 158.776 153.218,158.840 153.496,158.775 148.083 C 158.716 143.214,158.713 143.200,157.758 143.200 C 157.003 143.200,156.800 142.988,156.800 142.200 C 156.800 141.412,156.597 141.200,155.843 141.200 C 155.157 141.200,154.816 140.918,154.636 140.200 C 154.474 139.554,154.104 139.200,153.592 139.200 C 153.014 139.200,152.800 138.930,152.800 138.200 C 152.800 137.400,152.600 137.200,151.800 137.200 C 151.000 137.200,150.800 137.000,150.800 136.200 C 150.800 135.267,150.667 135.200,148.800 135.200 C 146.933 135.200,146.800 135.267,146.800 136.200 M160.800 158.200 C 160.800 159.229,160.817 159.234,163.700 159.118 C 166.294 159.012,166.600 158.916,166.600 158.200 C 166.600 157.484,166.294 157.388,163.700 157.282 C 160.817 157.166,160.800 157.171,160.800 158.200 M168.400 160.128 C 168.400 160.947,168.644 161.137,169.973 161.349 C 171.060 161.523,171.625 161.848,171.800 162.400 C 171.940 162.840,172.222 163.222,172.427 163.250 C 172.632 163.278,172.980 163.345,173.200 163.400 C 173.420 163.455,173.870 163.523,174.200 163.550 C 174.530 163.578,174.800 163.940,174.800 164.355 C 174.800 164.940,175.195 165.168,176.558 165.373 C 177.834 165.564,178.372 165.851,178.521 166.418 C 178.869 167.750,182.821 167.565,182.710 166.222 C 182.648 165.474,182.508 165.344,182.115 165.671 C 181.747 165.976,181.600 165.970,181.600 165.649 C 181.600 165.402,180.970 165.200,180.200 165.200 C 178.863 165.200,178.610 164.934,178.770 163.700 C 178.809 163.401,178.373 163.200,177.686 163.200 C 176.751 163.200,176.542 163.032,176.568 162.300 C 176.596 161.505,176.379 161.386,174.700 161.278 C 172.883 161.161,172.587 160.905,172.730 159.568 C 172.744 159.440,171.775 159.295,170.577 159.247 C 168.516 159.164,168.400 159.210,168.400 160.128 M185.067 167.467 C 183.719 168.815,186.630 170.021,189.797 169.427 C 190.948 169.211,191.200 168.988,191.200 168.182 C 191.200 167.208,185.939 166.595,185.067 167.467 M196.578 168.295 C 196.650 168.903,196.729 190.415,196.754 216.100 L 196.800 262.800 197.803 262.800 L 198.806 262.800 198.797 215.085 L 198.787 167.369 197.617 167.280 C 196.558 167.199,196.460 167.295,196.578 168.295 M190.400 263.410 C 190.400 264.127,188.837 264.800,187.174 264.800 C 186.437 264.800,186.000 265.008,186.000 265.357 C 186.000 265.664,185.730 266.018,185.400 266.145 C 185.049 266.279,184.800 266.879,184.800 267.587 C 184.800 268.614,184.647 268.800,183.800 268.800 C 183.000 268.800,182.800 269.000,182.800 269.800 C 182.800 270.588,182.597 270.800,181.843 270.800 C 181.157 270.800,180.816 271.082,180.636 271.800 C 180.474 272.446,180.104 272.800,179.592 272.800 C 178.915 272.800,178.799 273.075,178.794 274.700 C 178.788 276.752,178.020 278.661,177.267 278.500 C 176.365 278.307,176.653 284.836,177.557 285.073 C 178.292 285.265,178.800 286.687,178.800 288.554 C 178.800 289.023,179.151 289.627,179.580 289.895 C 180.009 290.163,180.479 291.016,180.625 291.791 C 181.091 294.278,182.800 293.814,182.800 291.200 C 182.800 290.100,182.665 289.221,182.500 289.247 C 180.946 289.493,180.832 289.253,180.715 285.500 C 180.609 282.102,180.527 281.768,179.700 281.405 C 178.351 280.813,178.428 278.800,179.800 278.800 C 180.727 278.800,180.800 278.660,180.800 276.895 C 180.800 275.303,180.948 274.925,181.700 274.595 C 182.392 274.291,182.628 273.812,182.722 272.525 C 182.822 271.151,183.001 270.827,183.722 270.725 C 184.279 270.646,184.647 270.271,184.728 269.700 C 184.820 269.049,185.124 268.800,185.828 268.800 C 186.598 268.800,186.800 268.592,186.800 267.800 C 186.800 266.867,186.933 266.800,188.800 266.800 C 190.667 266.800,190.800 266.733,190.800 265.800 C 190.800 265.000,191.000 264.800,191.800 264.800 C 192.600 264.800,192.800 264.600,192.800 263.800 C 192.800 262.956,192.613 262.800,191.600 262.800 C 190.791 262.800,190.400 262.999,190.400 263.410 M215.200 281.239 L 215.200 291.144 214.300 291.272 C 213.722 291.354,213.354 291.722,213.272 292.300 C 213.180 292.951,212.876 293.200,212.172 293.200 C 211.409 293.200,211.200 293.409,211.200 294.172 C 211.200 294.876,210.951 295.180,210.300 295.272 L 209.400 295.400 209.400 305.800 L 209.400 316.200 210.300 316.595 L 211.200 316.990 211.234 333.195 C 211.278 353.525,211.200 352.112,212.300 352.595 L 213.200 352.990 213.247 367.595 C 213.273 375.628,213.286 382.298,213.275 382.417 C 213.264 382.536,213.623 382.662,214.073 382.696 C 215.159 382.777,215.139 382.741,215.252 384.923 L 215.351 386.825 218.107 386.756 C 219.623 386.717,220.663 386.562,220.418 386.411 C 220.173 386.260,220.071 385.880,220.191 385.568 C 220.330 385.205,219.973 384.806,219.205 384.466 C 218.542 384.173,218.000 383.678,218.000 383.366 C 218.000 382.986,217.541 382.800,216.600 382.800 L 215.200 382.800 215.200 360.974 C 215.200 348.145,215.045 338.858,214.825 338.446 C 214.401 337.654,214.099 334.408,213.797 327.400 C 213.684 324.760,213.480 320.620,213.344 318.200 C 213.208 315.780,213.090 313.585,213.082 313.322 C 213.074 313.059,212.883 312.879,212.658 312.922 C 212.007 313.046,211.692 310.233,211.667 304.084 L 211.645 298.368 213.422 296.641 C 214.872 295.232,215.200 294.649,215.200 293.484 C 215.200 292.321,215.362 292.032,216.073 291.928 C 217.360 291.739,217.518 290.589,217.536 281.320 C 217.553 272.408,217.418 271.497,216.071 271.398 L 215.200 271.334 215.200 281.239 M184.800 300.000 C 184.800 302.846,185.194 303.446,186.320 302.320 C 187.477 301.163,186.703 297.200,185.320 297.200 C 184.943 297.200,184.800 297.969,184.800 300.000 M89.340 331.700 C 89.425 332.259,89.802 332.648,90.338 332.728 C 90.954 332.819,91.200 333.138,91.200 333.845 C 91.200 334.405,91.417 334.807,91.700 334.770 C 94.002 334.471,95.200 334.824,95.200 335.800 C 95.200 336.733,95.333 336.800,97.200 336.800 C 99.067 336.800,99.200 336.867,99.200 337.800 C 99.200 338.592,99.402 338.800,100.172 338.800 C 100.876 338.800,101.180 339.049,101.272 339.700 C 101.354 340.278,101.722 340.646,102.300 340.728 C 102.866 340.808,103.200 341.133,103.200 341.601 C 103.200 342.335,104.628 343.105,105.105 342.628 C 105.790 341.943,105.427 340.800,104.523 340.800 C 103.795 340.800,103.525 340.526,103.340 339.600 C 103.176 338.779,102.863 338.400,102.350 338.400 C 101.875 338.400,101.600 338.116,101.600 337.627 C 101.600 337.080,101.277 336.816,100.500 336.727 C 99.712 336.636,99.364 336.344,99.272 335.700 C 99.159 334.906,98.913 334.800,97.172 334.800 C 95.360 334.800,95.200 334.722,95.200 333.845 C 95.200 333.021,94.955 332.854,93.408 332.622 C 92.422 332.474,91.633 332.229,91.655 332.077 C 91.790 331.132,91.464 330.800,90.403 330.800 C 89.387 330.800,89.226 330.937,89.340 331.700 M183.822 342.764 C 183.670 343.011,183.393 343.119,183.208 343.005 C 183.022 342.890,182.842 345.722,182.807 349.298 C 182.773 352.874,182.685 356.340,182.611 357.000 C 182.538 357.660,182.355 360.060,182.205 362.334 C 182.054 364.607,181.677 367.076,181.366 367.821 C 180.956 368.802,180.800 370.992,180.800 375.780 C 180.800 383.122,181.025 382.549,178.000 382.888 C 177.107 382.988,176.987 383.207,176.877 384.931 C 176.740 387.071,178.433 387.774,178.728 385.700 C 178.820 385.049,179.124 384.800,179.828 384.800 C 180.598 384.800,180.800 384.592,180.800 383.800 C 180.800 383.000,181.000 382.800,181.800 382.800 C 182.572 382.800,182.800 382.594,182.800 381.895 C 182.800 381.340,183.148 380.837,183.700 380.595 L 184.600 380.200 184.704 362.447 C 184.801 345.912,184.760 344.655,184.104 344.115 C 183.438 343.566,183.437 343.546,184.100 343.755 C 184.864 343.995,184.978 343.700,184.444 342.857 C 184.200 342.473,184.019 342.446,183.822 342.764 M109.200 343.320 C 109.200 343.989,110.011 344.800,110.680 344.800 C 110.968 344.800,111.200 344.354,111.200 343.800 C 111.200 343.000,111.000 342.800,110.200 342.800 C 109.646 342.800,109.200 343.032,109.200 343.320 M112.676 345.900 C 112.814 346.285,112.787 346.474,112.616 346.319 C 112.445 346.165,112.024 346.319,111.681 346.662 C 110.714 347.629,111.569 348.577,113.541 348.723 C 115.119 348.840,115.454 349.189,115.247 350.500 C 115.221 350.665,115.920 350.800,116.800 350.800 C 119.147 350.800,119.237 348.918,116.900 348.724 C 115.695 348.624,115.375 348.423,115.272 347.700 C 115.180 347.049,114.876 346.800,114.172 346.800 C 113.467 346.800,113.200 346.581,113.200 346.000 C 113.200 345.560,113.026 345.200,112.813 345.200 C 112.599 345.200,112.538 345.515,112.676 345.900 M119.272 351.700 C 119.354 352.278,119.722 352.646,120.300 352.728 C 121.085 352.839,121.413 353.452,121.247 354.500 C 121.221 354.665,121.607 354.800,122.105 354.800 C 122.660 354.800,123.163 355.148,123.405 355.700 C 124.040 357.148,127.200 357.250,127.200 355.823 C 127.200 354.998,127.006 354.800,126.200 354.800 C 125.400 354.800,125.200 354.600,125.200 353.800 C 125.200 353.050,124.989 352.800,124.358 352.800 C 123.894 352.800,123.161 352.350,122.729 351.800 C 121.635 350.410,119.078 350.336,119.272 351.700 M131.200 359.796 C 131.200 360.395,131.412 360.808,131.700 360.770 C 132.794 360.628,133.150 360.838,133.272 361.700 C 133.363 362.341,133.659 362.591,134.300 362.568 C 135.029 362.543,135.200 362.752,135.200 363.668 C 135.200 364.609,135.369 364.800,136.200 364.800 C 137.103 364.800,137.407 365.271,137.265 366.448 C 137.163 367.289,141.327 366.547,141.457 365.700 C 141.573 364.940,141.413 364.800,140.426 364.800 C 139.357 364.800,138.277 364.136,137.936 363.269 C 137.861 363.079,137.260 362.669,136.600 362.358 C 135.689 361.928,135.352 361.455,135.200 360.396 C 134.926 358.480,131.200 357.922,131.200 359.796 M143.267 367.470 C 143.343 367.872,143.809 368.378,144.302 368.595 C 144.852 368.837,145.200 369.341,145.200 369.895 C 145.200 370.594,145.428 370.800,146.200 370.800 C 147.115 370.800,147.434 371.318,147.247 372.500 C 147.221 372.665,148.100 372.800,149.200 372.800 C 151.976 372.800,152.264 371.072,149.560 370.640 C 148.468 370.465,147.857 370.140,147.733 369.667 C 147.631 369.275,147.015 368.754,146.363 368.509 C 145.712 368.263,145.229 367.823,145.290 367.531 C 145.356 367.210,144.951 366.949,144.265 366.870 C 143.348 366.765,143.156 366.880,143.267 367.470 M155.200 375.592 C 155.200 376.104,155.554 376.474,156.200 376.636 C 156.918 376.816,157.200 377.157,157.200 377.843 C 157.200 378.590,157.414 378.800,158.172 378.800 C 158.876 378.800,159.180 379.049,159.272 379.700 C 159.354 380.278,159.722 380.646,160.300 380.728 C 161.092 380.840,161.420 381.466,161.240 382.522 C 161.210 382.699,162.044 382.789,163.093 382.722 C 165.483 382.569,166.302 380.843,164.028 380.750 C 161.901 380.663,161.803 380.620,161.672 379.700 C 161.573 379.000,161.283 378.800,160.372 378.800 C 159.404 378.800,159.200 378.634,159.200 377.847 C 159.200 377.230,158.918 376.819,158.400 376.684 C 157.921 376.559,157.600 376.138,157.600 375.637 C 157.600 374.974,157.351 374.800,156.400 374.800 C 155.471 374.800,155.200 374.979,155.200 375.592 M167.255 385.035 C 167.167 386.717,167.178 386.731,168.483 386.666 C 169.692 386.605,170.719 384.800,169.545 384.800 C 169.355 384.800,169.200 384.551,169.200 384.247 C 169.200 382.606,167.341 383.359,167.255 385.035 " stroke="none" fill="#e77d83" fill-rule="evenodd"></path><path id="path2" d="M148.210 146.180 C 146.877 146.696,145.196 147.737,144.410 148.534 C 143.292 149.668,142.032 150.288,138.325 151.528 C 135.754 152.388,132.798 153.656,131.757 154.346 C 130.715 155.036,129.696 155.600,129.493 155.600 C 129.289 155.600,128.305 156.320,127.305 157.200 C 126.284 158.099,124.768 158.977,123.844 159.206 C 122.940 159.430,121.283 159.908,120.163 160.268 C 117.433 161.146,113.355 160.175,111.748 158.265 C 111.190 157.602,109.803 156.630,108.666 156.105 C 107.530 155.581,106.042 154.614,105.361 153.956 C 104.580 153.203,102.818 152.315,100.598 151.555 C 98.237 150.746,96.809 150.010,96.269 149.324 C 95.230 148.003,92.610 146.820,90.700 146.809 L 89.200 146.800 89.200 237.000 L 89.200 327.200 91.240 327.200 C 93.245 327.200,93.334 327.253,96.280 330.189 C 98.552 332.455,99.632 333.242,100.739 333.443 C 102.798 333.815,104.300 334.654,104.600 335.600 C 104.741 336.045,105.417 336.699,106.102 337.053 C 106.788 337.407,108.440 338.535,109.774 339.560 C 111.108 340.584,113.413 342.013,114.896 342.734 C 117.415 343.960,118.459 344.799,121.348 347.922 C 122.164 348.804,123.106 349.290,124.604 349.601 C 126.266 349.946,127.048 350.394,128.302 351.719 C 130.501 354.043,134.464 356.883,137.817 358.538 C 140.760 359.991,144.800 363.279,144.800 364.221 C 144.800 364.525,145.555 364.974,146.500 365.232 C 150.316 366.274,150.815 366.503,151.787 367.657 C 152.344 368.320,152.800 369.028,152.800 369.231 C 152.800 369.434,153.001 369.600,153.247 369.600 C 153.493 369.600,154.340 370.167,155.129 370.860 C 155.918 371.552,157.472 372.557,158.582 373.093 C 162.557 375.011,168.197 379.131,168.605 380.414 C 168.946 381.489,173.362 382.121,174.678 381.284 C 175.258 380.915,175.818 372.383,176.391 355.200 C 176.954 338.296,177.010 337.527,178.403 327.500 C 181.322 306.480,181.108 297.687,177.600 294.400 C 174.818 291.793,174.059 282.079,175.857 272.088 C 176.033 271.110,177.165 269.704,180.311 266.554 C 184.909 261.950,185.084 261.842,188.600 261.417 C 190.196 261.224,191.436 260.798,192.300 260.143 L 193.600 259.159 193.600 233.145 L 193.600 207.131 192.381 205.433 C 191.068 203.605,187.665 200.801,186.756 200.798 C 185.417 200.794,177.366 196.442,176.493 195.251 C 175.406 193.768,174.141 193.071,171.093 192.275 C 169.836 191.947,168.253 191.211,167.573 190.639 C 165.089 188.548,161.679 189.898,160.775 193.329 C 160.533 194.248,160.064 195.422,159.733 195.938 L 159.132 196.876 158.261 196.057 C 157.782 195.607,156.492 194.846,155.395 194.365 C 154.298 193.884,152.937 193.166,152.372 192.769 C 151.806 192.372,150.456 191.831,149.372 191.566 C 148.225 191.286,146.668 190.481,145.651 189.642 C 142.384 186.947,139.402 184.835,138.840 184.817 C 137.253 184.768,129.344 180.645,128.141 179.240 C 127.159 178.092,126.185 177.524,123.932 176.785 C 120.163 175.548,119.934 175.363,120.080 173.664 C 120.200 172.257,124.017 168.877,125.549 168.820 C 127.534 168.747,135.134 165.776,136.400 164.579 C 137.170 163.850,138.790 162.878,140.000 162.417 C 141.210 161.957,142.830 161.247,143.600 160.840 C 144.370 160.432,146.182 159.882,147.628 159.618 C 149.073 159.353,150.443 159.016,150.672 158.868 C 152.731 157.542,153.709 148.019,151.975 146.174 C 150.897 145.026,151.198 145.025,148.210 146.180 " stroke="none" fill="#1e1e59" fill-rule="evenodd"></path><path id="path3" d="M127.253 132.615 C 125.678 133.854,123.457 134.792,122.086 134.798 C 121.803 134.799,121.162 135.068,120.662 135.396 C 120.079 135.778,118.538 136.030,116.376 136.096 C 113.506 136.184,112.940 136.316,112.600 136.973 C 112.074 137.989,108.760 139.915,106.765 140.363 C 105.895 140.559,104.692 141.049,104.092 141.453 C 101.761 143.019,99.690 143.683,96.151 143.995 C 94.145 144.172,92.113 144.525,91.636 144.781 C 91.160 145.036,90.417 145.132,89.985 144.995 C 89.344 144.792,89.200 144.935,89.200 145.773 C 89.200 146.692,89.358 146.801,90.700 146.809 C 92.610 146.820,95.230 148.003,96.269 149.324 C 96.809 150.010,98.237 150.746,100.598 151.555 C 102.818 152.315,104.580 153.203,105.361 153.956 C 106.042 154.614,107.530 155.581,108.666 156.105 C 109.803 156.630,111.190 157.602,111.748 158.265 C 113.355 160.175,117.433 161.146,120.163 160.268 C 121.283 159.908,122.940 159.430,123.844 159.206 C 124.768 158.977,126.284 158.099,127.305 157.200 C 128.305 156.320,129.289 155.600,129.493 155.600 C 129.696 155.600,130.715 155.036,131.757 154.346 C 132.798 153.656,135.754 152.388,138.325 151.528 C 142.028 150.289,143.292 149.667,144.406 148.538 C 145.244 147.688,146.847 146.723,148.373 146.149 L 150.934 145.186 151.904 146.093 C 153.717 147.787,152.779 157.511,150.672 158.868 C 150.443 159.016,149.073 159.353,147.628 159.618 C 146.182 159.882,144.370 160.432,143.600 160.840 C 142.830 161.247,141.210 161.957,140.000 162.417 C 138.790 162.878,137.170 163.850,136.400 164.579 C 135.134 165.776,127.534 168.747,125.549 168.820 C 124.017 168.877,120.200 172.257,120.080 173.664 C 119.934 175.363,120.163 175.548,123.932 176.785 C 126.185 177.524,127.159 178.092,128.141 179.240 C 129.344 180.645,137.253 184.768,138.840 184.817 C 139.402 184.835,142.384 186.947,145.651 189.642 C 146.668 190.481,148.225 191.286,149.372 191.566 C 150.456 191.831,151.806 192.372,152.372 192.769 C 152.937 193.166,154.298 193.884,155.395 194.365 C 156.492 194.846,157.782 195.607,158.261 196.057 L 159.132 196.876 159.733 195.938 C 160.064 195.422,160.533 194.248,160.775 193.329 C 161.679 189.898,165.089 188.548,167.573 190.639 C 168.253 191.211,169.836 191.947,171.093 192.275 C 174.141 193.071,175.406 193.768,176.493 195.251 C 177.366 196.442,185.417 200.794,186.756 200.798 C 187.665 200.801,191.068 203.605,192.381 205.433 L 193.600 207.131 193.600 233.145 L 193.600 259.159 192.300 260.143 C 191.436 260.798,190.196 261.224,188.600 261.417 C 185.084 261.842,184.909 261.950,180.311 266.554 C 177.165 269.704,176.033 271.110,175.857 272.088 C 174.059 282.079,174.818 291.793,177.600 294.400 C 180.731 297.334,180.838 297.888,180.194 307.845 C 179.454 319.298,179.049 323.229,177.562 333.400 C 177.336 334.940,177.085 339.080,177.002 342.600 C 176.893 347.255,176.941 348.237,177.177 346.200 C 177.356 344.660,177.794 341.060,178.150 338.200 C 181.966 307.543,182.021 296.644,178.370 294.228 C 177.506 293.656,176.799 293.146,176.799 293.094 C 176.798 293.042,176.451 291.200,176.026 289.000 C 175.233 284.885,175.393 276.641,176.342 272.740 C 176.866 270.590,184.754 262.937,187.000 262.401 C 189.332 261.845,192.693 261.901,192.935 262.500 C 193.046 262.775,193.151 262.562,193.168 262.026 C 193.186 261.490,193.605 260.621,194.100 260.094 L 195.000 259.136 195.125 234.668 C 195.208 218.451,195.102 209.178,194.813 207.170 C 194.566 205.452,194.370 197.999,194.361 189.970 C 194.347 176.644,194.018 171.506,193.146 170.967 C 192.956 170.849,192.800 170.953,192.800 171.197 C 192.800 171.969,190.115 172.800,187.619 172.800 C 185.253 172.800,185.193 172.772,184.153 171.200 C 183.570 170.320,182.950 169.600,182.775 169.600 C 182.600 169.600,182.172 169.315,181.824 168.966 C 181.442 168.585,180.357 168.293,179.095 168.232 C 177.943 168.177,176.424 167.832,175.720 167.466 C 175.016 167.100,174.188 166.800,173.879 166.800 C 173.051 166.800,169.551 164.876,168.400 163.788 C 167.850 163.268,166.743 162.568,165.940 162.233 C 165.137 161.897,164.191 161.334,163.838 160.981 C 163.485 160.628,162.135 160.189,160.839 160.006 C 158.033 159.609,157.429 159.311,155.625 157.436 L 154.250 156.007 153.928 150.581 C 153.538 143.986,152.907 142.895,148.168 140.616 C 146.407 139.769,144.936 138.729,144.277 137.866 C 143.386 136.698,142.884 136.432,141.109 136.192 C 138.619 135.855,137.362 135.266,136.000 133.799 C 133.326 130.919,129.985 130.467,127.253 132.615 M89.300 327.700 C 89.392 327.975,89.902 328.213,90.433 328.229 C 92.331 328.285,93.433 328.951,95.772 331.458 C 97.077 332.856,98.482 334.000,98.895 334.000 C 101.126 334.000,103.128 334.900,103.841 336.224 C 104.241 336.966,105.385 338.106,106.384 338.757 C 107.383 339.407,108.560 340.276,109.000 340.688 C 109.440 341.100,111.022 342.007,112.516 342.705 C 114.728 343.737,118.233 346.111,119.200 347.232 C 119.310 347.359,119.799 347.960,120.286 348.568 C 120.948 349.393,121.838 349.825,123.805 350.273 C 126.117 350.801,126.558 351.057,127.432 352.377 C 127.979 353.203,129.407 354.581,130.605 355.440 C 131.803 356.298,132.787 357.225,132.791 357.500 C 132.796 357.782,133.300 358.000,133.946 358.000 C 134.576 358.000,135.521 358.335,136.046 358.745 C 136.571 359.155,137.729 359.860,138.621 360.313 C 139.513 360.765,141.342 362.196,142.687 363.491 C 144.646 365.378,145.540 365.941,147.180 366.320 C 148.977 366.734,149.667 367.234,152.818 370.396 C 155.858 373.448,156.606 374.001,157.704 374.004 C 158.564 374.006,159.606 374.473,160.800 375.390 C 161.790 376.150,163.401 377.363,164.380 378.086 C 165.358 378.809,166.762 379.976,167.499 380.679 C 169.588 382.674,173.752 383.255,175.195 381.753 C 176.018 380.897,176.866 366.345,176.743 355.200 C 176.678 349.406,176.678 349.409,176.362 357.800 C 175.800 372.686,175.210 380.946,174.686 381.279 C 173.362 382.120,168.947 381.492,168.605 380.414 C 168.197 379.131,162.557 375.011,158.582 373.093 C 157.472 372.557,155.918 371.552,155.129 370.860 C 154.340 370.167,153.493 369.600,153.247 369.600 C 153.001 369.600,152.800 369.434,152.800 369.231 C 152.800 368.298,150.613 366.379,149.071 365.959 C 145.373 364.952,144.800 364.716,144.800 364.206 C 144.800 363.277,140.739 359.981,137.817 358.538 C 134.464 356.883,130.501 354.043,128.302 351.719 C 127.048 350.394,126.266 349.946,124.604 349.601 C 123.106 349.290,122.164 348.804,121.348 347.922 C 118.459 344.799,117.415 343.960,114.896 342.734 C 113.413 342.013,111.108 340.584,109.774 339.560 C 108.440 338.535,106.788 337.407,106.102 337.053 C 105.417 336.699,104.741 336.045,104.600 335.600 C 104.300 334.654,102.798 333.815,100.739 333.443 C 99.632 333.242,98.552 332.455,96.280 330.189 C 93.321 327.240,93.253 327.200,91.207 327.200 C 89.726 327.200,89.181 327.343,89.300 327.700 " stroke="none" fill="#5c65b1" fill-rule="evenodd"></path><path id="path4" d="M244.479 145.305 C 243.639 146.317,243.090 149.672,243.318 152.396 C 243.733 157.340,245.548 159.527,249.993 160.436 C 252.307 160.909,255.371 162.316,257.400 163.837 C 259.593 165.482,266.422 168.396,268.714 168.665 C 270.587 168.885,271.114 169.145,272.261 170.415 C 273.002 171.235,274.147 172.129,274.804 172.402 C 276.590 173.142,276.525 175.028,274.700 175.405 C 273.985 175.552,272.729 176.107,271.909 176.637 C 271.088 177.166,270.179 177.600,269.887 177.600 C 269.137 177.600,266.087 179.633,264.226 181.372 C 263.037 182.483,261.913 183.041,259.626 183.654 C 257.397 184.251,256.337 184.768,255.600 185.617 C 255.050 186.251,253.781 187.114,252.781 187.536 C 251.780 187.957,250.104 189.044,249.056 189.951 C 248.009 190.858,246.889 191.600,246.568 191.600 C 245.571 191.600,240.300 193.567,239.601 194.199 C 239.236 194.530,238.501 194.796,237.969 194.791 C 236.981 194.783,236.743 194.454,234.844 190.500 C 234.396 189.565,233.797 188.779,233.514 188.754 C 232.238 188.640,231.274 188.947,229.600 190.003 C 228.610 190.627,227.123 191.263,226.297 191.414 C 225.470 191.566,224.390 191.997,223.897 192.372 C 223.403 192.747,222.370 193.298,221.600 193.597 C 219.772 194.306,218.216 195.363,215.980 197.413 C 214.663 198.621,213.559 199.223,211.980 199.594 C 209.161 200.258,207.716 201.004,207.415 201.953 C 207.282 202.371,206.683 202.917,206.083 203.165 C 205.484 203.414,204.500 204.397,203.897 205.350 L 202.800 207.084 202.800 233.242 L 202.800 259.400 204.179 260.500 C 204.937 261.105,205.935 261.600,206.396 261.600 C 210.280 261.600,214.942 264.060,216.263 266.806 C 216.737 267.793,217.854 269.230,218.745 270.000 C 224.138 274.664,223.931 290.060,218.420 294.151 C 215.823 296.078,215.625 298.202,216.401 315.800 C 216.961 328.490,218.997 356.548,219.406 357.210 C 219.499 357.360,219.765 358.814,219.997 360.441 C 220.230 362.069,220.586 364.480,220.788 365.800 C 220.990 367.120,221.360 370.990,221.611 374.400 C 222.191 382.297,222.225 382.373,224.926 381.822 C 227.494 381.299,230.832 379.173,232.212 377.183 C 233.174 375.794,237.047 373.600,238.536 373.600 C 238.802 373.600,239.777 372.795,240.703 371.812 C 241.628 370.828,243.076 369.671,243.920 369.241 C 244.765 368.810,246.225 367.814,247.166 367.029 C 248.106 366.243,249.133 365.600,249.447 365.600 C 249.762 365.600,250.935 364.970,252.055 364.200 C 253.174 363.430,254.247 362.800,254.440 362.800 C 254.632 362.800,255.253 362.067,255.818 361.171 C 256.854 359.530,260.053 357.613,261.768 357.604 C 262.190 357.602,263.453 356.655,264.574 355.500 C 266.450 353.568,272.211 349.600,273.141 349.600 C 273.360 349.600,274.047 349.175,274.669 348.656 C 275.291 348.136,276.464 347.371,277.275 346.956 C 278.086 346.540,279.168 345.570,279.678 344.800 C 280.674 343.299,283.300 341.816,285.622 341.444 C 286.760 341.261,287.225 340.894,287.950 339.604 C 288.448 338.717,289.411 337.705,290.090 337.354 C 290.768 337.003,292.043 336.195,292.922 335.558 C 293.801 334.921,294.686 334.400,294.888 334.400 C 295.091 334.400,297.038 333.225,299.216 331.789 C 305.044 327.947,304.402 339.556,304.390 238.227 C 304.381 156.467,304.290 148.930,303.300 147.940 C 302.881 147.521,297.854 149.715,296.547 150.887 C 296.078 151.307,294.665 151.920,293.408 152.248 C 291.713 152.691,290.463 153.405,288.567 155.013 C 281.971 160.609,275.816 161.560,272.111 157.556 C 271.237 156.612,269.953 155.783,268.738 155.379 C 267.658 155.021,266.286 154.321,265.688 153.823 C 264.144 152.540,263.295 152.158,260.820 151.635 C 259.476 151.351,257.480 150.432,255.620 149.241 C 249.083 145.056,245.682 143.855,244.479 145.305 " stroke="none" fill="#b11d2d" fill-rule="evenodd"></path></g></svg>